<svg width="16" height="10" fill="none" xmlns="http://www.w3.org/2000/svg"><path d="M15.158 1.15c.103-.349 0-.605-.495-.605h-1.64c-.418 0-.61.22-.713.465 0 0-.836 2.035-2.017 3.355-.381.382-.556.504-.765.504-.103 0-.262-.122-.262-.47v-3.25c0-.418-.117-.604-.462-.604H6.225c-.262 0-.418.195-.418.376 0 .395.59.487.652 1.601v2.417c0 .53-.095.627-.303.627-.557 0-1.91-2.044-2.713-4.383-.161-.454-.32-.638-.74-.638h-1.64C.594.545.5.765.5 1.01c0 .434.557 2.592 2.592 5.444C4.45 8.4 6.36 9.456 8.096 9.456c1.045 0 1.173-.234 1.173-.638 0-1.86-.095-2.036.429-2.036.242 0 .66.123 1.634 1.061 1.114 1.114 1.298 1.613 1.921 1.613h1.64c.468 0 .705-.234.569-.697-.312-.971-2.42-2.97-2.515-3.104-.242-.312-.172-.451 0-.73.003-.003 2.005-2.82 2.211-3.776z" fill="#fff"/></svg>