<svg xmlns="http://www.w3.org/2000/svg" viewBox="0 0 50 50"><style>.st1{fill:#ab0b17}</style><g id="Layer_2"><path class="st1" d="M25 0C11.19 0 0 11.19 0 25s11.19 25 25 25 25-11.19 25-25S38.81 0 25 0zm0 49C11.75 49 1 38.25 1 25S11.75 1 25 1s24 10.75 24 24-10.75 24-24 24z"/><circle class="st1" cx="25" cy="25" r="23.38"/><path d="M9.75 20.29l-.84 2.54H7.83l2.75-8.08h1.26l2.76 8.08h-1.12l-.86-2.54H9.75zm2.65-.81l-.79-2.33c-.18-.53-.3-1.01-.42-1.48h-.02c-.12.48-.25.97-.41 1.46l-.79 2.34h2.43zm3.38-4.62c.53-.11 1.28-.17 2-.17 1.12 0 1.83.2 2.34.66.41.36.64.91.64 1.54 0 1.07-.67 1.77-1.52 2.06v.04c.62.22 1 .79 1.19 1.63.26 1.13.46 1.91.62 2.22h-1.08c-.13-.23-.31-.92-.54-1.93-.24-1.12-.67-1.54-1.62-1.57h-.98v3.5h-1.04v-7.98zm1.05 3.68h1.07c1.12 0 1.82-.61 1.82-1.54 0-1.04-.76-1.5-1.86-1.51-.5 0-.86.05-1.03.1v2.95zm9.59.51h-3.14v2.91h3.5v.88h-4.55v-8.08h4.36v.88h-3.32v2.55h3.14v.86zm1.72 3.79v-8.08h1.14l2.59 4.09c.6.95 1.07 1.8 1.45 2.63l.02-.01c-.1-1.08-.12-2.06-.12-3.32v-3.38h.98v8.08h-1.06l-2.57-4.1c-.56-.9-1.1-1.82-1.51-2.7l-.04.01c.06 1.02.08 1.99.08 3.33v3.45h-.96zm9.21-2.55l-.84 2.54h-1.08l2.75-8.08h1.26l2.76 8.08h-1.12l-.86-2.54h-2.87zm2.65-.81l-.79-2.33c-.18-.53-.3-1.01-.42-1.48h-.02c-.12.48-.25.97-.41 1.46l-.79 2.34H40zM9.47 28.57h4.35v.88h-3.31v2.69h3.06V33h-3.06v3.66H9.47v-8.09zm5.84 0h1.04v7.21h3.45v.88h-4.5v-8.09zm12.1 3.96c0 2.78-1.69 4.26-3.75 4.26-2.13 0-3.63-1.65-3.63-4.1 0-2.57 1.6-4.25 3.75-4.25 2.21 0 3.63 1.69 3.63 4.09zm-6.27.13c0 1.73.94 3.27 2.58 3.27 1.66 0 2.59-1.52 2.59-3.36 0-1.61-.84-3.29-2.58-3.29-1.73.01-2.59 1.61-2.59 3.38zm13.28 3.73c-.38.19-1.15.38-2.13.38-2.28 0-3.99-1.44-3.99-4.09 0-2.53 1.72-4.25 4.22-4.25 1.01 0 1.64.22 1.92.36l-.25.85c-.4-.19-.96-.34-1.63-.34-1.89 0-3.15 1.21-3.15 3.33 0 1.98 1.14 3.25 3.11 3.25.64 0 1.28-.13 1.7-.34l.2.85zm1.31-7.82h1.04v3.9h.04c.22-.31.43-.6.64-.86l2.47-3.03h1.3L38.29 32l3.15 4.65H40.2l-2.66-3.97-.77.89v3.08h-1.04v-8.08z" fill="#fff"/></g></svg>